<svg width="40" height="40" viewBox="0 0 40 40" fill="none" xmlns="http://www.w3.org/2000/svg">
<g filter="url(#filter0_d)">
<circle cx="20" cy="15" r="10" fill="#C7051A"/>
</g>
<g clip-path="url(#clip0)">
<path d="M24.2067 11.4175C23.689 10.8561 22.9787 10.5469 22.2065 10.5469C21.6293 10.5469 21.1006 10.7294 20.6352 11.0892C20.4004 11.2709 20.1876 11.4931 20 11.7525C19.8125 11.4932 19.5996 11.2709 19.3647 11.0892C18.8994 10.7294 18.3707 10.5469 17.7935 10.5469C17.0213 10.5469 16.3109 10.8561 15.7932 11.4175C15.2818 11.9724 15 12.7305 15 13.5522C15 14.3979 15.3152 15.172 15.9918 15.9885C16.5971 16.7189 17.4671 17.4603 18.4746 18.3189C18.8186 18.6121 19.2085 18.9444 19.6134 19.2984C19.7204 19.3921 19.8576 19.4437 20 19.4437C20.1423 19.4437 20.2796 19.3921 20.3864 19.2986C20.7913 18.9445 21.1815 18.612 21.5257 18.3186C22.533 17.4603 23.4029 16.7189 24.0083 15.9885C24.6849 15.172 25 14.3979 25 13.5521C25 12.7305 24.7182 11.9724 24.2067 11.4175Z" fill="white"/>
</g>
<defs>
<filter id="filter0_d" x="0" y="0" width="40" height="40" filterUnits="userSpaceOnUse" color-interpolation-filters="sRGB">
<feFlood flood-opacity="0" result="BackgroundImageFix"/>
<feColorMatrix in="SourceAlpha" type="matrix" values="0 0 0 0 0 0 0 0 0 0 0 0 0 0 0 0 0 0 127 0" result="hardAlpha"/>
<feOffset dy="5"/>
<feGaussianBlur stdDeviation="5"/>
<feColorMatrix type="matrix" values="0 0 0 0 0.780392 0 0 0 0 0.0196078 0 0 0 0 0.101961 0 0 0 0.4 0"/>
<feBlend mode="normal" in2="BackgroundImageFix" result="effect1_dropShadow"/>
<feBlend mode="normal" in="SourceGraphic" in2="effect1_dropShadow" result="shape"/>
</filter>
<clipPath id="clip0">
<rect width="10" height="10" fill="white" transform="translate(15 10)"/>
</clipPath>
</defs>
</svg>
